<?xml version="1.0" encoding="utf-8"?>
<!-- Generator: Adobe Illustrator 16.0.4, SVG Export Plug-In . SVG Version: 6.00 Build 0)  -->
<!DOCTYPE svg PUBLIC "-//W3C//DTD SVG 1.1//EN" "http://www.w3.org/Graphics/SVG/1.1/DTD/svg11.dtd">
<svg version="1.1" id="Layer_1" xmlns="http://www.w3.org/2000/svg" xmlns:xlink="http://www.w3.org/1999/xlink" x="0px" y="0px"
	 width="23.355px" height="50px" viewBox="0 0 23.355 50" enable-background="new 0 0 23.355 50" xml:space="preserve">
    <g>
        <g>
            <path fill="#FFFFFF" d="M23.346,0c-0.01,0.159-0.025,0.317-0.025,0.477c-0.002,2.568-0.009,5.137,0.008,7.704
                c0.002,0.358-0.104,0.447-0.45,0.444c-1.397-0.015-2.796-0.013-4.192,0.014c-0.477,0.009-0.953,0.082-1.422,0.171
                c-0.881,0.165-1.522,0.881-1.562,1.872c-0.066,1.808-0.061,3.618-0.092,5.427c-0.007,0.33,0.215,0.274,0.405,0.274
                c2.273,0.001,4.552,0.001,6.826,0.001c0.154,0,0.31,0,0.516,0c-0.306,2.904-0.604,5.741-0.907,8.608c-2.283,0-4.526,0-6.83,0
                c0,0.202,0,0.37,0,0.537c-0.002,8.012-0.006,16.021-0.01,24.033c0,0.146-0.008,0.291-0.013,0.438c-3.115,0-6.231,0-9.345,0
                c0.003-0.146,0.009-0.292,0.009-0.438c0-7.987,0-15.976,0-23.961c0-0.186,0-0.368,0-0.599c-2.094,0-4.148,0-6.229,0
                c-0.01-0.175-0.022-0.304-0.022-0.433C0.009,21.987,0.015,19.405,0,16.822c-0.002-0.356,0.105-0.447,0.452-0.444
                c1.784,0.016,3.568-0.005,5.352,0.015c0.38,0.004,0.461-0.123,0.463-0.479c0.01-2.315-0.001-4.633,0.083-6.946
                C6.41,7.284,6.761,5.646,7.542,4.124c0.857-1.669,2.19-2.807,3.961-3.369c0.981-0.312,2.02-0.446,3.03-0.66
                c0.144-0.03,0.282-0.063,0.424-0.095C17.754,0,20.55,0,23.346,0z"/>
        </g>
    </g>
</svg>
