<?xml version="1.0" encoding="utf-8"?>
<!-- Generator: Adobe Illustrator 16.0.4, SVG Export Plug-In . SVG Version: 6.00 Build 0)  -->
<!DOCTYPE svg PUBLIC "-//W3C//DTD SVG 1.1//EN" "http://www.w3.org/Graphics/SVG/1.1/DTD/svg11.dtd">
<svg version="1.1" id="Layer_1" xmlns="http://www.w3.org/2000/svg" xmlns:xlink="http://www.w3.org/1999/xlink" x="0px" y="0px"
	 width="50px" height="50px" viewBox="0 0 50 50" enable-background="new 0 0 50 50" xml:space="preserve">
<g>
	<g>
		<path fill-rule="evenodd" clip-rule="evenodd" fill="#FFFFFF" d="M0,24.978c0.06-3.373,0.09-6.746,0.188-10.118
			c0.084-2.911,0.609-5.732,2.161-8.258c2.034-3.31,5.02-5.33,8.814-5.976c2.251-0.383,4.563-0.522,6.852-0.557
			c4.959-0.075,9.921-0.046,14.881,0.007c2.621,0.028,5.253,0.115,7.773,0.989c4.832,1.675,7.765,5.076,8.72,10.045
			c0.434,2.256,0.53,4.598,0.565,6.904c0.075,4.959,0.047,9.921-0.008,14.881c-0.028,2.604-0.115,5.217-0.98,7.721
			c-1.677,4.854-5.084,7.802-10.081,8.75c-2.257,0.428-4.598,0.526-6.904,0.562c-4.941,0.075-9.885,0.045-14.827-0.008
			c-2.622-0.028-5.254-0.116-7.774-0.989c-4.832-1.675-7.766-5.076-8.719-10.046c-0.433-2.257-0.479-4.598-0.57-6.905
			c-0.091-2.331-0.02-4.668-0.02-7.002C0.046,24.979,0.023,24.979,0,24.978z M45.578,24.596c-0.034,0-0.067-0.001-0.102-0.002
			c0-1.97,0.04-3.941-0.012-5.91c-0.05-1.894-0.122-3.792-0.313-5.675c-0.428-4.221-2.942-7.134-7.101-7.92
			c-2.221-0.42-4.527-0.478-6.799-0.521c-4.157-0.077-8.317-0.068-12.476-0.003C16.631,4.6,14.464,4.675,12.35,5.003
			c-3.611,0.561-6.078,2.631-7.075,6.212C4.955,12.363,4.768,13.58,4.74,14.77c-0.107,4.521-0.174,9.043-0.158,13.565
			c0.01,2.878,0.076,5.765,0.326,8.629c0.369,4.237,2.905,7.141,7.064,7.938c2.237,0.43,4.562,0.484,6.852,0.528
			c4.139,0.078,8.281,0.054,12.421,0.008c1.929-0.021,3.863-0.127,5.783-0.316c1.779-0.175,3.444-0.757,4.875-1.894
			c2.319-1.845,3.215-4.387,3.352-7.205C45.439,32.218,45.478,28.405,45.578,24.596z"/>
		<path fill-rule="evenodd" clip-rule="evenodd" fill="#FFFFFF" d="M37.847,25.019c0,7.112-5.711,12.806-12.842,12.804
			c-7.153-0.001-12.808-5.722-12.803-12.953c0.005-7.045,5.774-12.698,12.952-12.693C32.159,12.182,37.848,17.937,37.847,25.019z
			 M25.013,16.68c-4.573,0.015-8.316,3.769-8.308,8.331c0.008,4.564,3.773,8.319,8.331,8.31c4.566-0.01,8.316-3.771,8.308-8.333
			C33.335,20.422,29.568,16.666,25.013,16.68z"/>
		<path fill-rule="evenodd" clip-rule="evenodd" fill="#FFFFFF" d="M38.377,8.675c1.693,0.005,2.983,1.321,2.973,3.031
			c-0.011,1.646-1.357,2.989-2.991,2.984c-1.658-0.004-3.034-1.382-3.024-3.028C35.344,9.994,36.694,8.67,38.377,8.675z"/>
	</g>
</g>
</svg>
