<?xml version="1.0" encoding="utf-8"?>
<!-- Generator: Adobe Illustrator 16.0.4, SVG Export Plug-In . SVG Version: 6.00 Build 0)  -->
<!DOCTYPE svg PUBLIC "-//W3C//DTD SVG 1.1//EN" "http://www.w3.org/Graphics/SVG/1.1/DTD/svg11.dtd">
<svg version="1.1" id="Layer_1" xmlns="http://www.w3.org/2000/svg" xmlns:xlink="http://www.w3.org/1999/xlink" x="0px" y="0px"
	 width="37.215px" height="50px" viewBox="6.393 0 37.215 50" enable-background="new 6.393 0 37.215 50" xml:space="preserve">
<g>
	<g>
		<path fill="#FFFFFF" d="M21.345,0c0.551,0.143,1.118,0.242,1.65,0.437c0.869,0.319,1.562,0.871,1.859,1.789
			c0.1,0.309,0.129,0.652,0.131,0.981c0.042,5.669,0.086,11.339,0.095,17.009c0.001,0.58-0.132,1.199-0.36,1.733
			c-0.587,1.375-1.634,1.419-2.803,0.66c-0.823-0.535-1.291-1.357-1.782-2.164c-1.266-2.076-2.532-4.153-3.801-6.228
			c-1.394-2.279-2.786-4.558-4.189-6.831c-0.355-0.576-0.735-1.139-1.13-1.688c-0.509-0.708-0.484-1.315,0.071-1.99
			c1.569-1.909,3.682-2.825,6.026-3.312C17.904,0.233,18.709,0.131,19.508,0C20.12,0,20.733,0,21.345,0z"/>
		<path fill="#FFFFFF" d="M21.984,50c-1.186-0.422-2.37-0.848-3.558-1.264c-1.016-0.356-2.033-0.709-3.053-1.053
			c-0.765-0.258-1.192-0.811-1.391-1.562c-0.281-1.065-0.133-2.006,0.626-2.892c1.895-2.207,3.736-4.461,5.587-6.707
			c0.728-0.883,1.534-1.654,2.623-2.073c1.237-0.476,2.155-0.038,2.524,1.243c0.123,0.428,0.176,0.892,0.17,1.338
			c-0.046,3.312-0.165,6.623-0.153,9.936c0.005,1.543-0.895,2.365-2.061,2.833c-0.171,0.069-0.344,0.134-0.516,0.2
			C22.517,50,22.25,50,21.984,50z"/>
		<path fill="#FFFFFF" d="M8.943,35.369c-1.3-0.064-2.477-1.121-2.514-2.426C6.373,30.965,6.399,28.982,6.397,27
			c0-0.559-0.013-1.12,0.042-1.675c0.114-1.158,0.61-2.107,1.64-2.722c0.479-0.285,0.983-0.31,1.496-0.107
			c1.866,0.737,3.729,1.478,5.594,2.218c1.296,0.515,2.59,1.036,3.89,1.542c0.756,0.295,1.36,0.77,1.798,1.449
			c0.653,1.012,0.476,2.179-0.461,3.154c-0.553,0.576-1.206,0.979-1.963,1.244c-2.823,0.985-5.637,1.994-8.458,2.986
			C9.64,35.209,9.288,35.277,8.943,35.369z"/>
		<path fill="#FFFFFF" d="M43.607,23.183c-0.104,0.508-0.145,0.91-0.271,1.282c-0.23,0.672-0.736,1.055-1.432,1.186
			c-2.157,0.401-4.314,0.803-6.473,1.201c-0.89,0.164-1.775,0.349-2.672,0.469c-0.932,0.125-1.805-0.096-2.553-0.68
			c-0.701-0.548-0.914-1.309-0.841-2.168c0.093-1.064,0.676-1.873,1.342-2.654c1.476-1.729,2.967-3.445,4.376-5.227
			c1.221-1.542,2.909-1.392,4.124-0.23c1.588,1.516,2.867,3.284,3.911,5.208C43.396,22.076,43.466,22.695,43.607,23.183z"/>
		<path fill="#FFFFFF" d="M31.854,32.479c0.726,0.158,1.461,0.282,2.174,0.482c2.443,0.688,4.879,1.406,7.318,2.104
			c1.256,0.359,2.08,1.748,1.836,3.067c-0.183,0.979-0.668,1.82-1.168,2.649c-0.816,1.354-1.695,2.669-2.518,4.019
			c-0.645,1.062-2.616,1.312-3.561,0.703c-0.213-0.137-0.398-0.356-0.522-0.58c-1.423-2.567-2.84-5.141-4.238-7.723
			c-0.504-0.931-1.079-1.832-1.286-2.902c-0.217-1.104,0.096-1.587,1.195-1.725c0.25-0.031,0.503-0.038,0.754-0.056
			C31.844,32.505,31.85,32.491,31.854,32.479z"/>
	</g>
</g>
</svg>
